<svg xmlns="http://www.w3.org/2000/svg" width="88.4" height="115.254" viewBox="0 0 88.4 115.254"><g id="Grupo_4" data-name="Grupo 4" transform="translate(-15.8 -31.838)"><g id="Grupo_1" data-name="Grupo 1" transform="translate(3.924 6.308)"><path id="Uni&#xE3;o_2" data-name="Uni&#xE3;o 2" d="M24.425,109.3A31.309,31.309,0,0,1,15.21,97.254,37.389,37.389,0,0,1,11.863,82V36.417a1.542,1.542,0,0,1-1.01-.776A2.12,2.12,0,0,1,11,33.568a1.525,1.525,0,0,1,.432-1.532,10.85,10.85,0,0,0-.861-1.532,1.747,1.747,0,0,1-.4.049,1.3,1.3,0,0,1-1.17-.672,1.952,1.952,0,0,1-1.384-.884,2.013,2.013,0,0,1-.068-2.09L0,9.195l2.827-1.2h0l2.181-.93,3.57-1.523,2.437,5.719-1.332.569.292.681-.274.431c-.132.207-.245.39-.339.556l1.376-.407,2.82-.836h0l2.844-.842,1.961-.582a3.843,3.843,0,0,0-.706-.307l-.49-.162-.162-.763-1.433.3L14.282,3.818l3.08-.654h0l3.762-.8,2.927-.621L26.37,1.25h0l3.8-.8,1.291,6.079-1.416.3.157.724-.354.372c-.17.178-.318.337-.442.484l1.4-.12,2.931-.251,4.834-.415c-.149-.114-.322-.236-.518-.372l-.426-.292,0-.74H36.172V0h16.24V6.216H50.948V7l-.446.261a3.972,3.972,0,0,0-.541.373l1.36.1h0l.75.054,2.183.154h0l2.961.208h0l1.6.113c-.071-.075-.146-.153-.227-.235l-.359-.365.144-.727-1.421-.278,1.2-6.1,3.1.608,3.035.6h0l3.647.715h0l3.061.6h0l3.093.605-1.2,6.1L71.456,9.49l-.151.765-.487.17a3.9,3.9,0,0,0-.637.281l2.085.649h0l2.808.873h0l2.831.88v0l1.156.359c-.1-.179-.221-.378-.364-.6l-.275-.432.292-.681-1.332-.567,2.437-5.72,2.9,1.239h0L85.571,7.92h0L88.4,9.125,80.87,26.8a2.021,2.021,0,0,1-.115,2.329,1.685,1.685,0,0,1-1.163.641,1.406,1.406,0,0,1-.252.333,1.233,1.233,0,0,1-.9.346,1.84,1.84,0,0,1-.362-.037,8.433,8.433,0,0,0-.81,1.561,1.818,1.818,0,0,1,.312.537,1.65,1.65,0,0,1,.062.973,2.52,2.52,0,0,1,.375,1.392,1.671,1.671,0,0,1-.617,1.218,1.492,1.492,0,0,1-.792.322V81.281A39.613,39.613,0,0,1,73.149,97.6a30.318,30.318,0,0,1-9.918,12.327,28.034,28.034,0,0,1-8.964,4.046,39.5,39.5,0,0,1-10.03,1.277C36.356,115.254,29.505,113.2,24.425,109.3Zm8.361-79.076A72.312,72.312,0,0,0,22.477,32.5c-1.766.531-3.429,1.118-4.977,1.755H71.219a66.37,66.37,0,0,0-10.211-3.026,77.635,77.635,0,0,0-16.28-1.861H44.37A80.314,80.314,0,0,0,32.786,30.226Z" transform="translate(11.876 25.529)" fill="#09120b"></path><g id="surface1" transform="translate(13.058 26.431)"><path id="Caminho_41" data-name="Caminho 41" d="M47.421,9.115l.382.027.113-1.595,2.09.147-.112,1.595,1.048.073.111-1.595,1.885.133-.112,1.594,1.047.073.112-1.594,1.911.134L55.787,9.7l1.047.073.113-1.594,1.885.132-.112,1.595.31.022.17-.47c.511-1.408-.308-2.221-1.094-3.021l.134-.671h0l.093-.474L56.91,5.015,57.759.684l2.04.4-.313,1.592,1.059.208.313-1.592,1.978.388-.312,1.592,1.059.208L63.9,1.887l1.877.368L65.46,3.848l1.059.208.313-1.592,2,.392-.312,1.593,1.059.207.312-1.592,2.032.4-.85,4.331L69.64,7.511l-.093.475h0l-.131.668a2.714,2.714,0,0,0-2.153,2.609l-.023.569.317.1.475-1.526,2,.623-.474,1.526,1,.312.474-1.526,1.805.562-.475,1.526,1,.312.474-1.526,1.83.569L75.2,14.309l1,.312.474-1.526,1.8.561-.475,1.526.35.109.421-.677c.792-1.27.16-2.236-.443-3.182l.27-.628h0l.189-.446-1.334-.568,1.73-4.06,1.912.815-.636,1.493.993.423L82.1,6.968l1.854.79-.635,1.493.993.423.636-1.493,1.17.5-7.4,17.37a1.044,1.044,0,0,1,.231.22,1.127,1.127,0,0,1-.016,1.4,1.2,1.2,0,0,1-1.248.233.51.51,0,0,1-.079.639c-.167.165-.557.058-.765-.039l-.193-.088a9.383,9.383,0,0,0-1.545,2.95l.055.026a.845.845,0,0,1,.483,1.037.382.382,0,0,1-.18.181c.464.475.842,1.406.275,1.864-.334.27-.841.06-1.144-.1A59.413,59.413,0,0,0,60.1,29.431a78.9,78.9,0,0,0-16.47-1.881,80.875,80.875,0,0,0-12.077.864,73.2,73.2,0,0,0-10.437,2.306,47.483,47.483,0,0,0-9.093,3.7c-.492.269-1.2.39-1.479-.123a1.4,1.4,0,0,1,.452-1.577.449.449,0,0,1-.231-.307c-.113-.4.156-.7.523-.879l.153-.076a11.183,11.183,0,0,0-1.66-2.96l-.246.112c-.3.136-.736.255-.9-.181a.442.442,0,0,1,.052-.415,1.2,1.2,0,0,1-1.42-.421,1.165,1.165,0,0,1,.2-1.492L.078,8.75l1.169-.5.636,1.493.993-.423L2.24,7.83l1.854-.79.637,1.493.992-.423L5.087,6.616,7,5.8l1.73,4.061L7.4,10.43l.189.445h0l.27.628c-.6.946-1.235,1.911-.443,3.182l.392.629.388-.115-.454-1.532,2.01-.6L10.2,14.6l1.008-.3-.455-1.532,1.812-.537.454,1.532,1.007-.3-.454-1.533,1.838-.544.453,1.532,1.008-.3L16.418,11.1l1.812-.537.454,1.532.383-.113-.036-.658a2.715,2.715,0,0,0-2.193-2.575L16.7,8.078l-.1-.473-1.432.3-.917-4.317,2.026-.43.336,1.588,1.057-.224-.338-1.588,2-.424L19.661,4.1l1.056-.224L20.38,2.289l1.871-.4.337,1.588,1.056-.224-.338-1.588,1.972-.419.337,1.588,1.056-.224-.337-1.588L28.367.593l.917,4.317-1.419.3.1.474h0l.144.669c-.774.813-1.58,1.638-1.047,3.038l.262.687.346-.03-.138-1.592,2.089-.179.137,1.592,1.047-.09-.137-1.592,1.883-.162.137,1.592,1.046-.09L33.6,7.935l1.908-.164.137,1.592,1.047-.09-.137-1.592,1.883-.162.137,1.592.381-.033.119-.763c.231-1.48-.73-2.119-1.656-2.754l0-.684h0V4.394H35.97V-.02h2.078V1.6h1.08V-.02h2.015V1.6h1.08V-.02h1.913V1.6h1.079V-.02h2.043V1.6h1.079V-.02h2.071V4.394H48.942v.484h0v.681a2.712,2.712,0,0,0-1.61,2.974Zm0,0" transform="translate(-0.078 0.02)" fill="#09120b" fill-rule="evenodd"></path><path id="Caminho_42" data-name="Caminho 42" d="M57.957,171.172H120.9v46.121c0,11.168-4.686,22.06-13,27.913-5.046,3.554-11.935,5.159-18.475,5.159-7.1,0-13.97-1.708-19.265-5.767-7.565-5.8-12.208-16.548-12.208-26.583Zm0,0" transform="translate(-46.375 -136.914)" fill="#09120b" fill-rule="evenodd"></path><path id="Caminho_43" data-name="Caminho 43" d="M61.3,191.941H122.91V174.523H61.3Zm0,0" transform="translate(-49.052 -139.594)" fill="#ffd600" fill-rule="evenodd"></path><path id="Caminho_44" data-name="Caminho 44" d="M389.981,30.406l-1.528,3.586,6.448,2.747,1.527-3.586-.694-.3L395.1,34.35l-1.467-.625.636-1.493-1.381-.588-.636,1.493-1.467-.625.636-1.493Zm0,0" transform="translate(-310.733 -24.318)" fill="#ffd600" fill-rule="evenodd"></path><path id="Caminho_45" data-name="Caminho 45" d="M393.345,52.395l5.114,2.179-.313.736-5.115-2.179Zm0,0" transform="translate(-314.395 -41.906)" fill="#ffd600" fill-rule="evenodd"></path><path id="Caminho_46" data-name="Caminho 46" d="M365.8,72.1l1.777.825,4.41-5.445a1.843,1.843,0,0,1,2.074-.819c.034.015.067.03.1.047l2.1-4.936-3.744-1.595-.577,1.353a2.413,2.413,0,0,1-.412,1.372Zm2.018.936.522.242,3.675-4.641c.6-.761,1.191-.936,1.614-.74l.02.009.409-.961a.968.968,0,0,0-.1-.048c-.689-.294-1.36.235-1.772.744Zm3.283-7.529.848.361,1.939-2.773-.848-.361Zm0,0" transform="translate(-292.611 -48.13)" fill="#ffd600" fill-rule="evenodd"></path><path id="Caminho_47" data-name="Caminho 47" d="M286.34,5.012l-.75,3.824,13.66,2.679L300,7.69l-1.526-.3-.312,1.593L296.6,8.676l.312-1.593-1.5-.293L295.1,8.382l-1.565-.306.312-1.593-1.37-.268-.312,1.592L290.6,7.5l.313-1.592-1.472-.288-.313,1.592-1.565-.306.312-1.593Zm0,0" transform="translate(-228.454 -4.005)" fill="#ffd600" fill-rule="evenodd"></path><path id="Caminho_48" data-name="Caminho 48" d="M291.826,26.832l10.8,2.118-.154.784-10.8-2.118Zm0,0" transform="translate(-233.319 -21.459)" fill="#ffd600" fill-rule="evenodd"></path><path id="Caminho_49" data-name="Caminho 49" d="M278.254,46.508l1.91.438,3.183-6.242a1.843,1.843,0,0,1,1.859-1.232c.916.18,1.226,1.15,1.28,1.968l.6,7.092,1.995.457.434-10.966a2.932,2.932,0,0,1,.455-1.527l.294-1.5-7.909-1.551-.283,1.443a2.414,2.414,0,0,1-.119,1.427Zm2.169.5.561.129,2.631-5.3c.431-.869.971-1.162,1.426-1.059s.824.6.878,1.526l.354,6.048.546.126-.592-7.012c-.046-.691-.288-1.581-1.072-1.735-.735-.145-1.282.513-1.58,1.1Zm1.649-8.046.9.177,1.32-3.115-.9-.177Zm6.321,1.239-.905-.177-.047-3.383.905.177Zm0,0" transform="translate(-222.587 -26.752)" fill="#ffd600" fill-rule="evenodd"></path><path id="Caminho_50" data-name="Caminho 50" d="M8.21,30.762l1.527,3.585L3.289,37.094,1.762,33.509l.7-.3.636,1.493,1.468-.625-.637-1.493L5.3,32l.636,1.493,1.467-.625-.636-1.493Zm0,0" transform="translate(-1.425 -24.602)" fill="#ffd600" fill-rule="evenodd"></path><path id="Caminho_51" data-name="Caminho 51" d="M15.036,52.75,9.922,54.929l.313.736,5.114-2.179Zm0,0" transform="translate(-7.952 -42.19)" fill="#ffd600" fill-rule="evenodd"></path><path id="Caminho_52" data-name="Caminho 52" d="M22.455,72.455l-1.778.824-4.41-5.445a1.843,1.843,0,0,0-2.074-.818c-.034.014-.067.03-.1.047l-2.1-4.937,3.743-1.594.577,1.352a2.409,2.409,0,0,0,.411,1.372Zm-2.018.937-.522.242L16.24,68.993c-.6-.761-1.192-.936-1.614-.741l-.02.009L14.2,67.3c.031-.017.065-.033.1-.048.688-.293,1.36.235,1.772.744Zm-3.284-7.529-.848.362-1.939-2.773.848-.361Zm0,0" transform="translate(-9.608 -48.414)" fill="#ffd600" fill-rule="evenodd"></path><path id="Caminho_53" data-name="Caminho 53" d="M86.019,4.566l.81,3.812L73.213,11.272,72.4,7.459l1.521-.323.337,1.588,1.56-.331L75.484,6.8l1.492-.317.337,1.587,1.56-.331-.337-1.587L79.9,5.866l.337,1.588,1.56-.331-.337-1.588,1.466-.311.338,1.588,1.56-.332L84.49,4.892Zm0,0" transform="translate(-57.929 -3.649)" fill="#ffd600" fill-rule="evenodd"></path><path id="Caminho_54" data-name="Caminho 54" d="M94.652,26.434,83.887,28.721l.166.782,10.766-2.287Zm0,0" transform="translate(-67.115 -21.14)" fill="#ffd600" fill-rule="evenodd"></path><path id="Caminho_55" data-name="Caminho 55" d="M104.284,46.142l-1.9.468L99.1,40.418a1.842,1.842,0,0,0-1.877-1.2c-.915.194-1.209,1.169-1.25,1.988l-.487,7.1-1.988.488-.605-10.957a2.923,2.923,0,0,0-.48-1.52L92.1,34.824l7.883-1.675.306,1.438a2.417,2.417,0,0,0,.141,1.426Zm-2.161.531-.56.138L98.85,41.55c-.445-.862-.989-1.148-1.441-1.037s-.815.617-.855,1.54L96.3,48.106l-.546.134.482-7.02c.034-.692.263-1.585,1.044-1.752.732-.156,1.291.493,1.6,1.071Zm-1.775-8.019-.9.192-1.369-3.094.9-.192Zm-6.3,1.338.9-.192-.006-3.383-.9.192Zm0,0" transform="translate(-73.683 -26.511)" fill="#ffd600" fill-rule="evenodd"></path><path id="Caminho_56" data-name="Caminho 56" d="M180.723,1.27v3.9h13.92V1.27h-1.555V2.892h-1.6V1.27h-1.524V2.892h-1.6V1.27h-1.4V2.892h-1.6V1.27h-1.5V2.892h-1.6V1.27Zm0,0" transform="translate(-144.573 -1.012)" fill="#ffd600" fill-rule="evenodd"></path><path id="Caminho_57" data-name="Caminho 57" d="M187.969,22.885h11.006v-.8H187.969Zm0,0" transform="translate(-150.369 -17.662)" fill="#ffd600" fill-rule="evenodd"></path><path id="Caminho_58" data-name="Caminho 58" d="M187.879,40.971l1.957.063,1.923-6.738c.214-.75.707-1.567,1.587-1.567.934,0,1.424.893,1.635,1.685l1.952,6.844,2.046.065-1.684-10.844a2.936,2.936,0,0,1,.152-1.587V27.367h-8.058v1.47a2.432,2.432,0,0,1,.158,1.424Zm2.223.07.576.019,1.562-5.71c.256-.936.729-1.327,1.195-1.314s.926.434,1.157,1.329l1.509,5.867.561.018-1.929-6.766c-.179-.669-.587-1.5-1.387-1.5-.748,0-1.159.75-1.339,1.379Zm.07-8.213h.922l.7-3.311h-.922Zm6.441,0h-.922l-.7-3.311h.922Zm0,0" transform="translate(-150.297 -21.887)" fill="#ffd600" fill-rule="evenodd"></path><path id="Caminho_59" data-name="Caminho 59" d="M53.662,137.359a.725.725,0,0,0,1.025.252c8.479-4.635,20.982-6.927,31.734-6.872,10.213.052,22.712,2.517,31.077,6.83.212.109.735.1.876-.242a1.109,1.109,0,0,0-.514-1.286,74.792,74.792,0,0,0-15.019-4.906,83.515,83.515,0,0,0-16.356-1.854,79.428,79.428,0,0,0-14.992,1.33,63.045,63.045,0,0,0-17.378,5.582A.883.883,0,0,0,53.662,137.359Zm0,0" transform="translate(-42.869 -103.401)" fill="#ffd600" fill-rule="evenodd"></path><path id="Caminho_60" data-name="Caminho 60" d="M39.057,102.4c-.33.144-1.024.655-.709,1.288a.716.716,0,0,0,.985.268,87.059,87.059,0,0,1,22.533-6.524A83.191,83.191,0,0,1,74.4,96.544a78.8,78.8,0,0,1,11.333.957,94.255,94.255,0,0,1,22.293,6.332c.217.093.838.147,1.06-.15.385-.514-.208-1.212-.565-1.383-5.256-2.519-12.549-4.149-17.7-5.256A82.828,82.828,0,0,0,74.47,95.4a88.59,88.59,0,0,0-14.616,1.041A89.908,89.908,0,0,0,39.057,102.4Zm0,0" transform="translate(-30.626 -76.296)" fill="#ffd600" fill-rule="evenodd"></path><path id="Caminho_61" data-name="Caminho 61" d="M44.8,109.377c-.519.241-.146.757.214.593a83.51,83.51,0,0,1,33.847-7.254,82.123,82.123,0,0,1,18.63,2.21,83.555,83.555,0,0,1,15,4.941.34.34,0,1,0,.227-.638c-9.042-3.886-22.372-7.373-33.8-7.293a85.6,85.6,0,0,0-21.15,2.792A76.966,76.966,0,0,0,44.8,109.377Zm0,0" transform="translate(-35.643 -81.532)" fill="#ffd600" fill-rule="evenodd"></path><path id="Caminho_62" data-name="Caminho 62" d="M55.471,131.5c-.488.24-.213.912.124.747a64.269,64.269,0,0,1,13.636-4.728,80.839,80.839,0,0,1,18.25-2.036,81.872,81.872,0,0,1,17.779,2.056,77.5,77.5,0,0,1,13.84,4.654c.413.183.646-.57.066-.831a82.643,82.643,0,0,0-31.634-6.632,81.594,81.594,0,0,0-19.969,2.481A61.215,61.215,0,0,0,55.471,131.5Zm0,0" transform="translate(-44.174 -99.763)" fill="#ffd600" fill-rule="evenodd"></path><path id="Caminho_63" data-name="Caminho 63" d="M116.262,113.8a9.665,9.665,0,0,0-1.446,3,69.059,69.059,0,0,0-8.939-3.21A88.818,88.818,0,0,0,95.31,111.22a72.754,72.754,0,0,0-12.01-.984,81.948,81.948,0,0,0-20.019,2.487q-1.04.27-2.075.558a58.1,58.1,0,0,0-9.775,3.607,11.672,11.672,0,0,0-1.512-3.023A82.247,82.247,0,0,1,63.774,109.2a80.16,80.16,0,0,1,19.385-2.334,81.4,81.4,0,0,1,18.582,2.2q1.883.447,3.749.963c2,.552,3.98,1.164,5.932,1.85C113.056,112.457,114.682,113.085,116.262,113.8Zm0,0" transform="translate(-39.944 -85.477)" fill="#ffd600" fill-rule="evenodd"></path><path id="Caminho_64" data-name="Caminho 64" d="M236.859,40.722l.581.041.112-1.595,1.577.111-.112,1.595,1.562.109.112-1.595,1.371.1-.112,1.594,1.562.11.112-1.595,1.4.1-.111,1.594,1.561.109.112-1.594,1.371.1-.112,1.595.495.034-.558,1.539-10.662-.693Zm10,4.879-1.372-.084.091-2.333,2.109.137Zm-1.537-2.434-.092,2.334-2.606-.16L242.6,42.99Zm-2.975-.194.018,2.352-3.256-.2.176-2.351Zm-3.32-.216-.177,2.352-1.322-.081-.371-2.392Zm6.886,5.451-2.147-.147.138-2.383,2.863.177Zm-2.4-.165-2.881-.2.2-2.357,2.816.173Zm-3.139-.215-2.433-.166-.368-2.373,3,.184Zm-2.025,2.461-.367-2.366.9.062-.028,2.335Zm.76.047L239.132,48l2.607.179-.1,2.36Q240.372,50.419,239.1,50.335Zm2.791.23L242,48.2l2.592.177-.142,2.485Q243.173,50.691,241.895,50.565Zm2.808.329.144-2.5.974.066-.894,2.465Zm0,0" transform="translate(-189.475 -31.326)" fill="#ffd600" fill-rule="evenodd"></path><path id="Caminho_65" data-name="Caminho 65" d="M334.088,55.055l.5.155.475-1.526,1.508.47-.474,1.526,1.494.465.475-1.526,1.312.409-.474,1.526,1.5.465.474-1.526,1.337.416-.474,1.527,1.494.465.475-1.526,1.313.408-.475,1.526.531.166-.768,1.234-10.276-3.14Zm8.8,6.924-1.579-.479.829-2.183,2.022.618Zm-1-2.738-.828,2.183-2.7-.821.606-2.256Zm-3.174-.969-.606,2.256-2.688-.816.606-2.261Zm-2.934-.9-.606,2.261-1.257-.381.1-2.42Zm5.677,6.895-2.343-.707.581-2.283,3.049.926Zm-2.59-.782-2.826-.853.571-2.292,2.835.861Zm-3.073-.927-1.985-.6.1-2.44,2.459.747Zm-2.1,2.311.1-2.644.739.223-.606,2.481Zm.488.123.6-2.469,2.306.7-.65,2.379Q335.319,65.285,334.187,64.995Zm2.507.675.65-2.375,2.505.757-.722,2.348q-.953-.3-1.9-.578C337.046,65.77,336.87,65.72,336.694,65.67Zm2.679.808.723-2.352,1.225.37-1.356,2.176C339.767,66.607,339.57,66.542,339.373,66.479Zm0,0" transform="translate(-266.936 -42.937)" fill="#ffd600" fill-rule="evenodd"></path><path id="Caminho_66" data-name="Caminho 66" d="M137.365,43.286l10.571-.964.27-1.732-.575.049-.136-1.592-1.37.117.137,1.592-1.56.134-.137-1.592-1.394.12.137,1.592-1.56.134-.137-1.592-1.369.117.136,1.592-1.56.134-.137-1.592-1.574.135.137,1.592-.528.045Zm1.084,2.848,1.3-.125-.242-2.659-2.047.187Zm1.316-2.808.242,2.658,3.028-.292-.19-2.646Zm3.336-.3.191,2.645,2.8-.27-.083-2.64Zm3.16-.288.084,2.639,1.133-.109.417-2.678Zm-7.376,4.548-.019-.929-.323.031Zm.4,1.047,2.558-.242-.184-2-2.534.245L139.159,48Zm2.816-.267,2.88-.273-.106-2.015-2.96.285Zm3.136-.3,1.88-.177.321-2.061-2.306.223Zm1.312,2.425-.072-2.283-2.83.268.16,2.231Q145.176,50.275,146.549,50.189Zm-3,.241-.16-2.231-2.662.252.208,2.275Q142.239,50.557,143.55,50.429Zm-2.87.328-.208-2.283-1.092.1.854,2.24Zm6.4-2.909-.342.032.056,1.8Zm0,0" transform="translate(-109.372 -31.229)" fill="#ffd600" fill-rule="evenodd"></path><path id="Caminho_67" data-name="Caminho 67" d="M39.395,59.105l.567-.168L39.509,57.4l1.514-.449.454,1.532,1.5-.445-.454-1.532,1.317-.391.454,1.533,1.5-.446-.454-1.532,1.343-.4.453,1.532,1.5-.445-.453-1.532,1.316-.391.454,1.533.572-.17.1,1.747-10.268,3.1Zm11.4,1.413-.944.29L49.3,58.222l1.341-.4Zm.13,2.343-1.877.575-.6-1.925,2.362-.727Zm.1,1.813-.44-1.439.355-.109Zm-7.674.774,1.173-.359.664,2.2c-.19.066-.38.131-.568.2ZM45.428,67.2l-.661-2.189,2.766-.846.607,2.154-.31.1Q46.625,66.792,45.428,67.2Zm2.957-.957-.606-2.153,2.555-.782L51,65.485Q49.686,65.846,48.385,66.245Zm-6.276-2.784.5-.153.5,1.753ZM40.5,60.88l2.251-.68.692,2.58-1.476.454Zm8.3,2.63-.6-1.925-2.663.82.553,1.933Zm-2.956.9-.554-1.933-2.434.75.549,1.929Zm3.758-3.53L49.053,58.3l-2.831.855.669,2.566Zm-2.956.909-.669-2.568-2.976.9.692,2.579Zm0,0" transform="translate(-31.527 -43.543)" fill="#ffd600" fill-rule="evenodd"></path><path id="Caminho_68" data-name="Caminho 68" d="M61.3,293.07c2.523-.021,3.914-.944,6.016-1.463a15.837,15.837,0,0,1,3.568-.442,24.712,24.712,0,0,1,4.981.5,16.768,16.768,0,0,1,2.269.746,9.144,9.144,0,0,0,3.477.619,11.231,11.231,0,0,0,2.812-.329c.938-.231,1.814-.621,2.723-.915a15.646,15.646,0,0,1,4.831-.626,18.5,18.5,0,0,1,4.936.561,14.889,14.889,0,0,0,5.937,1.251c2.49-.014,3.905-.936,5.8-1.366a21.853,21.853,0,0,1,4.6-.442,16.431,16.431,0,0,1,4.065.468c1.216.338,1.951.771,3.125,1.059a9.316,9.316,0,0,0,2.469.248v6.7c-2.191-.038-3.554-.888-5.613-1.389a20.364,20.364,0,0,0-4.4-.481,18.5,18.5,0,0,0-4.835.562c-1.759.5-3.273,1.309-5.2,1.307-3.551,0-7-.858-10.55-.861a28.485,28.485,0,0,0-6.4.364,22.241,22.241,0,0,1-4.822.451,18.193,18.193,0,0,1-4.489-1.174,18.309,18.309,0,0,0-5.305-.595,17.231,17.231,0,0,0-4.126.431c-1.97.481-3.553,1.442-5.862,1.388Zm0,0" transform="translate(-49.052 -232.89)" fill="#1d9d41" fill-rule="evenodd"></path><path id="Caminho_69" data-name="Caminho 69" d="M61.3,364.341c2.523-.021,3.914-.945,6.016-1.464a15.858,15.858,0,0,1,3.568-.443,24.741,24.741,0,0,1,4.981.5,16.9,16.9,0,0,1,2.269.747,9.141,9.141,0,0,0,3.477.619,11.2,11.2,0,0,0,2.812-.329c.938-.231,1.814-.622,2.723-.915a15.67,15.67,0,0,1,4.831-.626,18.5,18.5,0,0,1,4.936.561,14.888,14.888,0,0,0,5.937,1.251c2.49-.014,3.905-.935,5.8-1.366a21.859,21.859,0,0,1,4.6-.442,16.433,16.433,0,0,1,4.065.468c1.216.339,1.951.772,3.125,1.06a9.312,9.312,0,0,0,2.469.247v6.069c0,.21,0,.42,0,.632-2.189-.039-3.551-.889-5.609-1.388a20.33,20.33,0,0,0-4.4-.481,18.5,18.5,0,0,0-4.835.562c-1.759.5-3.273,1.309-5.2,1.307-3.551,0-7-.858-10.55-.861a28.452,28.452,0,0,0-6.4.365,22.235,22.235,0,0,1-4.822.45A18.17,18.17,0,0,1,76.6,369.69a18.309,18.309,0,0,0-5.305-.6,17.239,17.239,0,0,0-4.126.432c-1.97.481-3.553,1.443-5.862,1.387Zm0,0" transform="translate(-49.052 -289.898)" fill="#1d9d41" fill-rule="evenodd"></path><path id="Caminho_70" data-name="Caminho 70" d="M65.559,435.309c2.011-.191,3.311-.963,5.165-1.421a15.883,15.883,0,0,1,3.568-.443,24.715,24.715,0,0,1,4.981.5,16.783,16.783,0,0,1,2.269.747,9.147,9.147,0,0,0,3.477.618,11.2,11.2,0,0,0,2.812-.328c.938-.232,1.814-.622,2.723-.915a15.652,15.652,0,0,1,4.831-.627,18.532,18.532,0,0,1,4.936.561,14.875,14.875,0,0,0,5.937,1.251c2.49-.013,3.905-.935,5.8-1.366a21.847,21.847,0,0,1,4.6-.442,16.431,16.431,0,0,1,4.065.467c1.216.338,1.951.772,3.125,1.06a8.946,8.946,0,0,0,1.61.236,37.3,37.3,0,0,1-1.9,6.223c-.908-.286-1.789-.64-2.858-.9a20.364,20.364,0,0,0-4.4-.481,18.54,18.54,0,0,0-4.835.562c-1.259.358-2.408.875-3.666,1.139a9.53,9.53,0,0,1-4.709-.231c-2.319-.693-4.829-1.883-7.377-1.885-3.176,0-6.159,1.841-9.334,2.2a9.845,9.845,0,0,1-2.786-.054c-1.1-.2-2.312-.7-3.594-1.084a18.335,18.335,0,0,0-5.305-.6,17.27,17.27,0,0,0-4.126.432c-1.069.26-2.025.664-3.044.969A37,37,0,0,1,65.559,435.309Zm0,0" transform="translate(-52.455 -346.699)" fill="#1d9d41" fill-rule="evenodd"></path><path id="Caminho_71" data-name="Caminho 71" d="M93.191,504.687a15.933,15.933,0,0,1,3.2-.357,24.712,24.712,0,0,1,4.981.5,16.65,16.65,0,0,1,2.269.746,9.131,9.131,0,0,0,3.477.618,11.191,11.191,0,0,0,2.812-.328c.938-.231,1.814-.621,2.723-.915a15.647,15.647,0,0,1,4.831-.627,18.5,18.5,0,0,1,4.936.562,14.889,14.889,0,0,0,5.937,1.251c2.49-.014,3.905-.936,5.8-1.366a21.851,21.851,0,0,1,4.6-.442,18.057,18.057,0,0,1,3.384.306,26.853,26.853,0,0,1-6.011,6.2,14.67,14.67,0,0,0-2.559.456c-1.259.358-2.408.875-3.666,1.138a9.54,9.54,0,0,1-4.709-.23c-1.017-.3-2.121-.782-3.254-1.047a19.287,19.287,0,0,0-4.379-.461,18.985,18.985,0,0,0-5.216.725,20.52,20.52,0,0,1-3.862,1.1,10.618,10.618,0,0,1-2.889-.079,35.743,35.743,0,0,1-3.491-1.059,13.946,13.946,0,0,0-2.933-.518c-.138-.1-.278-.2-.415-.31A26.963,26.963,0,0,1,93.191,504.687Zm0,0" transform="translate(-74.558 -403.397)" fill="#1d9d41" fill-rule="evenodd"></path><path id="Caminho_72" data-name="Caminho 72" d="M61.3,264.914v6.7a10.5,10.5,0,0,0,3.507-.684c.8-.275,1.576-.563,2.4-.766a16.022,16.022,0,0,1,3.678-.456,25.861,25.861,0,0,1,2.623.133,19.873,19.873,0,0,1,2.462.378,16,16,0,0,1,2.116.686l.209.077a9.379,9.379,0,0,0,1.362.406,10.331,10.331,0,0,0,1.961.185,10.859,10.859,0,0,0,2.7-.315c.918-.227,1.791-.616,2.69-.906a16.1,16.1,0,0,1,4.974-.649c.7,0,1.4.025,2.092.079a13.663,13.663,0,0,1,2.985.5c.417.131.827.282,1.239.43a14.085,14.085,0,0,0,1.9.564,12.793,12.793,0,0,0,2.656.235,9.2,9.2,0,0,0,2.209-.282c.642-.162,1.261-.383,1.886-.6a15.576,15.576,0,0,1,1.6-.475,21.776,21.776,0,0,1,4.7-.454,16.426,16.426,0,0,1,4.19.485c.595.166,1.151.383,1.726.6a11.451,11.451,0,0,0,1.384.453,8.851,8.851,0,0,0,2.358.234v-6.566Zm0,14.2v6.762a10.5,10.5,0,0,0,3.507-.685c.8-.275,1.576-.563,2.4-.766a16.02,16.02,0,0,1,3.678-.456,26.211,26.211,0,0,1,2.623.133,19.845,19.845,0,0,1,2.462.378,16.089,16.089,0,0,1,2.116.685l.209.078a9.476,9.476,0,0,0,1.362.4,10.254,10.254,0,0,0,1.961.185,10.812,10.812,0,0,0,2.7-.315c.918-.227,1.791-.616,2.69-.906a16.126,16.126,0,0,1,4.974-.649c.7,0,1.4.025,2.092.079a13.721,13.721,0,0,1,2.985.5c.417.132.827.282,1.239.43a14.057,14.057,0,0,0,1.9.564,12.768,12.768,0,0,0,2.656.235,9.151,9.151,0,0,0,2.209-.282c.642-.161,1.261-.383,1.886-.6a15.738,15.738,0,0,1,1.6-.475,21.766,21.766,0,0,1,4.7-.453,16.39,16.39,0,0,1,4.19.485c.595.166,1.151.382,1.726.6a11.451,11.451,0,0,0,1.384.453,8.809,8.809,0,0,0,2.358.234V279.11a10.035,10.035,0,0,1-2.963-.533c-.925-.295-1.814-.639-2.76-.87a19.159,19.159,0,0,0-4.288-.468,17.838,17.838,0,0,0-4.708.545c-.827.235-1.627.551-2.446.813a9.291,9.291,0,0,1-2.884.512c-3.543,0-7.014-.858-10.55-.861a28.1,28.1,0,0,0-6.3.353,22.342,22.342,0,0,1-4.926.463,7.9,7.9,0,0,1-2.261-.423c-.792-.244-1.569-.532-2.362-.771a17.924,17.924,0,0,0-5.172-.575,16.844,16.844,0,0,0-4.016.418c-.7.171-1.373.413-2.051.646A10.822,10.822,0,0,1,61.3,279.114Zm0,14.262a34.734,34.734,0,0,0,.749,6.672,11.39,11.39,0,0,0,2.755-.647c.8-.275,1.576-.562,2.4-.765a15.966,15.966,0,0,1,3.678-.456,26.229,26.229,0,0,1,2.623.133,20.147,20.147,0,0,1,2.462.378,16,16,0,0,1,2.116.686l.209.077a9.475,9.475,0,0,0,1.362.406,10.248,10.248,0,0,0,1.961.185,10.815,10.815,0,0,0,2.7-.315c.918-.227,1.791-.615,2.69-.906a16.124,16.124,0,0,1,4.974-.649c.7,0,1.4.026,2.092.08a13.709,13.709,0,0,1,2.985.5c.417.132.827.282,1.239.43a13.862,13.862,0,0,0,1.9.564,12.688,12.688,0,0,0,2.656.235,9.158,9.158,0,0,0,2.209-.282c.642-.161,1.261-.383,1.886-.6a15.587,15.587,0,0,1,1.6-.474,21.726,21.726,0,0,1,4.7-.454,16.425,16.425,0,0,1,4.19.485c.595.166,1.151.383,1.726.6a11.178,11.178,0,0,0,1.384.453,8.474,8.474,0,0,0,1.6.228,39.249,39.249,0,0,0,.747-6.576,10.065,10.065,0,0,1-2.947-.531c-.925-.295-1.814-.64-2.76-.87a19.065,19.065,0,0,0-4.288-.468,17.8,17.8,0,0,0-4.708.544c-.827.235-1.627.551-2.446.813a9.3,9.3,0,0,1-2.884.512c-3.543,0-7.014-.857-10.55-.861a28.153,28.153,0,0,0-6.3.353,22.3,22.3,0,0,1-4.926.463,7.873,7.873,0,0,1-2.261-.423c-.792-.244-1.569-.532-2.362-.771a17.945,17.945,0,0,0-5.172-.575,16.835,16.835,0,0,0-4.016.418c-.7.17-1.373.413-2.051.646A10.805,10.805,0,0,1,61.307,293.376Zm3,13.756a33.926,33.926,0,0,0,3.1,5.644,15.988,15.988,0,0,1,3.487-.41,26.111,26.111,0,0,1,2.623.132,20.026,20.026,0,0,1,2.462.379,16,16,0,0,1,2.116.686l.209.077a9.468,9.468,0,0,0,1.362.406,10.328,10.328,0,0,0,1.961.185,10.824,10.824,0,0,0,2.7-.316c.918-.226,1.791-.615,2.69-.905a16.1,16.1,0,0,1,4.974-.649c.7,0,1.4.025,2.092.079a13.709,13.709,0,0,1,2.985.5c.417.132.827.282,1.239.43a13.974,13.974,0,0,0,1.9.565,12.791,12.791,0,0,0,2.656.235,9.2,9.2,0,0,0,2.209-.283c.642-.161,1.261-.383,1.886-.6a15.576,15.576,0,0,1,1.6-.475,21.776,21.776,0,0,1,4.7-.454,17.574,17.574,0,0,1,3.671.356,32.444,32.444,0,0,0,3.054-5.659l-.029-.009c-.925-.295-1.814-.64-2.76-.87a19.111,19.111,0,0,0-4.288-.468,17.77,17.77,0,0,0-4.708.545c-1.245.353-2.426.879-3.7,1.146a10,10,0,0,1-4.938-.24c-2.333-.7-4.772-1.863-7.244-1.866a8.465,8.465,0,0,0-.858.045,21.345,21.345,0,0,0-4.439,1.154,20.037,20.037,0,0,1-3.983,1,10.2,10.2,0,0,1-2.923-.058,13.642,13.642,0,0,1-1.791-.489c-.618-.2-1.231-.421-1.854-.608a17.918,17.918,0,0,0-5.172-.576,16.887,16.887,0,0,0-4.016.419c-.7.17-1.373.412-2.051.646C64.912,306.94,64.606,307.041,64.3,307.132Zm10.14,12.774c5.158,3.461,11.507,4.772,17.663,4.772,6.008,0,12.679-1.388,17.721-4.784a12.737,12.737,0,0,0-1.637.342c-1.245.353-2.426.88-3.7,1.146a10.013,10.013,0,0,1-4.938-.239c-1.083-.325-2.123-.782-3.228-1.041a18.789,18.789,0,0,0-4.273-.449,18.292,18.292,0,0,0-5.083.706c-.671.2-1.318.452-1.981.67a9.643,9.643,0,0,1-1.962.447,10.869,10.869,0,0,1-3.024-.084,33.621,33.621,0,0,1-3.542-1.071A12.468,12.468,0,0,0,74.444,319.905Zm0,0" transform="translate(-49.052 -211.897)" fill="#fff" fill-rule="evenodd"></path><path id="Caminho_73" data-name="Caminho 73" d="M150.343,327.326v7.338h7.337l5.857-8.94v26.2l-5.85-8.929h-7.343v7.326l8.939,5.857h-26.2l8.93-5.85v-7.333h-7.335l-5.85,8.929v-26.2l5.857,8.94h7.328v-7.345l-8.93-5.85h26.2Zm0,0" transform="translate(-103.063 -257.134)" fill="#09120b" fill-rule="evenodd"></path><path id="Caminho_74" data-name="Caminho 74" d="M151.734,328.931v8.053h8.052l5.142-7.849v23.088l-5.135-7.837h-8.059v8.041l7.848,5.142H136.494l7.837-5.135v-8.048h-8.048l-5.135,7.837V329.135l5.142,7.849h8.041v-8.06l-7.837-5.135h23.088Zm-5.209.98h2.922v9.311h9.31v2.921h-9.31v9.311h-2.922v-9.311h-9.31v-2.921h9.31Zm0,0" transform="translate(-104.919 -258.99)" fill="#e3001e" fill-rule="evenodd"></path><path id="Caminho_75" data-name="Caminho 75" d="M173.092,356.7h1.993v9.311H184.4V368h-9.311v9.311h-1.993V368h-9.311V366.01h9.311Zm0,0" transform="translate(-131.021 -285.314)" fill="#fff" fill-rule="evenodd"></path><path id="Caminho_76" data-name="Caminho 76" d="M181.121,366.332a8.583,8.583,0,1,1-8.582,8.582A8.582,8.582,0,0,1,181.121,366.332Zm0,0" transform="translate(-138.027 -293.019)" fill="#09120b" fill-rule="evenodd"></path><path id="Caminho_77" data-name="Caminho 77" d="M182.565,368.133a8.205,8.205,0,0,1,6.378,3.035,16.564,16.564,0,0,1-1.438,1.659l-.012-.019c-.259-.383-.534-.755-.829-1.111a12.627,12.627,0,0,0-4.866-3.527C182.05,368.146,182.306,368.133,182.565,368.133Zm6.608,3.329a8.162,8.162,0,0,1,1.18,2.25c-1.826,2.209-4.27,4.447-7.1,5.118-.186-.832-.327-1.643-.433-2.376A15.809,15.809,0,0,0,189.173,371.462Zm1.308,2.661a8.238,8.238,0,0,1,.307,2.232q0,.379-.034.748a12.864,12.864,0,0,1-5.941,3.887q-.427.128-.86.227l-.027.006c-.231-.668-.425-1.359-.588-2.041C186.172,378.51,188.619,376.336,190.481,374.123Zm.194,3.592a8.233,8.233,0,0,1-5.333,6.381,10.776,10.776,0,0,1-1.293-2.531A12.9,12.9,0,0,0,190.674,377.715Zm-5.692,6.5a8.2,8.2,0,0,1-2.363.36,9.742,9.742,0,0,1-1.842-4.172,17.78,17.78,0,0,1-.162-6.154,12.6,12.6,0,0,1,1.816,1.936l-.012,0,.025.178C182.793,378.8,183.487,382.068,184.982,384.216Zm-2.831.351a8.169,8.169,0,0,1-2.909-.689c-2.176-3.035-2.2-7.836-1.115-11.241a11.234,11.234,0,0,1,2.164,1.348l0,.032a18.045,18.045,0,0,0,.135,6.462A10.372,10.372,0,0,0,182.152,384.567Zm-3.55-1.008a8.224,8.224,0,0,1-2.866-11.783,13.585,13.585,0,0,1,2.061.708v0C176.727,375.818,176.7,380.412,178.6,383.559Zm-2.643-12.1a8.29,8.29,0,0,1,1.657-1.671,13.609,13.609,0,0,1,7.405,5.079,14.29,14.29,0,0,1-2.223,1.2A12.076,12.076,0,0,0,175.959,371.462ZM178,369.519a8.169,8.169,0,0,1,3.091-1.253,12.624,12.624,0,0,1,5.3,3.661,13.429,13.429,0,0,1,.807,1.082l.05.075a15.548,15.548,0,0,1-1.922,1.581A14.041,14.041,0,0,0,178,369.519Zm0,0" transform="translate(-139.471 -294.46)" fill="#ffd600" fill-rule="evenodd"></path><path id="Caminho_78" data-name="Caminho 78" d="M101.035,192.773h4.359v8.685h5.464v1.822h-9.823Zm0,0" transform="translate(-80.832 -154.192)" fill="#09120b" fill-rule="evenodd"></path><path id="Caminho_79" data-name="Caminho 79" d="M183.9,192.516h11.292V194.3h-6.932v3.368h3.814v1.789h-3.814v3.562H183.9Zm0,0" transform="translate(-147.116 -153.987)" fill="#09120b" fill-rule="evenodd"></path><path id="Caminho_80" data-name="Caminho 80" d="M270.831,192.773h7.26v1.789h-4.926a.434.434,0,0,0-.487.495v5.917a.49.49,0,0,0,.544.513h4.868v1.794h-7.46a2.141,2.141,0,0,1-2.312-2.122V194.9C268.32,193.365,269.6,192.773,270.831,192.773Zm0,0" transform="translate(-214.64 -154.192)" fill="#09120b" fill-rule="evenodd"></path><path id="Caminho_81" data-name="Caminho 81" d="M157.8,237.994h1.879v-1.822H157.8Zm0,0" transform="translate(-126.235 -188.906)" fill="#09120b" fill-rule="evenodd"></path><path id="Caminho_82" data-name="Caminho 82" d="M240.016,237.994h1.88v-1.822h-1.88Zm0,0" transform="translate(-192.001 -188.906)" fill="#09120b" fill-rule="evenodd"></path><path id="Caminho_83" data-name="Caminho 83" d="M325.078,237.994h1.88v-1.822h-1.88Zm0,0" transform="translate(-260.04 -188.906)" fill="#09120b" fill-rule="evenodd"></path></g></g></g></svg>